PathFileType	4	(X/Y/Z)	./resultDataOpenSim/trcMotMarkerGrf/sub10/qtm-01-05.trc
DataRate	CameraRate	NumFrames	NumMarkers	Units	OrigDataRate	OrigDataStartFrame	OrigNumFrames
250.000000	250.000000	11	24	m	250.000000	61	487
Frame#	Time	L.Toe.Tip			R.Toe.Tip			L.Ankle.Lat			R.Ankle.Lat			L.Ankle.Med			R.Ankle.Med			L.Heel			R.Heel			L.Knee.Lat			R.Knee.Lat			L.Knee.Med			R.Knee.Med			L.Thigh.Upper			R.Thigh.Upper			L.ASIS			R.ASIS			V.Sacral			L.Acromium			R.Acromium			C7			L.Elbow			R.Elbow			L.Wrist.Lat			R.Wrist.Lat
		X1	Y1	Z1	X2	Y2	Z2	X3	Y3	Z3	X4	Y4	Z4	X5	Y5	Z5	X6	Y6	Z6	X7	Y7	Z7	X8	Y8	Z8	X9	Y9	Z9	X10	Y10	Z10	X11	Y11	Z11	X12	Y12	Z12	X13	Y13	Z13	X14	Y14	Z14	X15	Y15	Z15	X16	Y16	Z16	X17	Y17	Z17	X18	Y18	Z18	X19	Y19	Z19	X20	Y20	Z20	X21	Y21	Z21	X22	Y22	Z22	X23	Y23	Z23	X24	Y24	Z24

61	0.24	-1.4576935	0.062438376	-0.1492475	-0.74338101	0.040572886	-0.0020676777	-1.4364723	0.20085534	-0.18754047	-0.87895548	0.050895213	0.038889391	-1.4060617	0.19042232	-0.11048509	-0.8682923	0.081597331	-0.044263616	-1.4646209	0.25308583	-0.13509483	-0.93367048	0.027626457	-0.0080244431	-1.1230431	0.40934201	-0.21599112	-0.88528342	0.45055795	0.079679322	-1.0995556	0.36432514	-0.1040114	-0.89244811	0.45942215	-0.047693021	-1.0660961	0.78214115	-0.23657172	-0.99616444	0.85928529	0.14016642	-0.99701897	0.89375443	-0.18643831	-0.95134764	0.9386799	0.048805564	-1.1703581	0.92700877	-0.032985117	-1.0283846	1.3840806	-0.21838871	-1.0544206	1.3719168	0.10688704	-1.1265322	1.4103681	-0.06333201	-1.0895317	1.0419552	-0.27627838	-1.2228249	1.0767645	0.12473233	-0.89182551	0.88936012	-0.2859557	-1.2124051	0.84003167	0.1780664
62	0.244	-1.4499992	0.065302509	-0.15019598	-0.74325308	0.040422986	-0.0022261834	-1.4256211	0.20363288	-0.18737318	-0.87889715	0.050902759	0.038833069	-1.3949966	0.19230978	-0.11036348	-0.86810442	0.081570774	-0.044366951	-1.4526529	0.25603737	-0.13460491	-0.93367308	0.027634841	-0.0080114197	-1.1113138	0.40909977	-0.21605278	-0.88197288	0.45072259	0.079883939	-1.086586	0.36472976	-0.10414808	-0.88991902	0.45937156	-0.047623399	-1.0588917	0.78227768	-0.23598776	-0.99083016	0.8599802	0.14079242	-0.99054699	0.89411273	-0.18572878	-0.94521981	0.93938917	0.049465369	-1.1650268	0.9276156	-0.032849806	-1.0225416	1.3846612	-0.21816683	-1.0483116	1.3725464	0.10724129	-1.1207332	1.4111805	-0.062906765	-1.0850294	1.0427359	-0.27551277	-1.2158457	1.076688	0.12607638	-0.8884358	0.88872023	-0.28548863	-1.2041803	0.84010288	0.17940139
63	0.248	-1.4410839	0.068184501	-0.15098406	-0.74310906	0.040282242	-0.0023623361	-1.4146709	0.20631653	-0.18713622	-0.87884572	0.050913347	0.038779703	-1.3838882	0.19429649	-0.11016817	-0.86788513	0.081551198	-0.044473348	-1.4411032	0.25873038	-0.13396558	-0.93367528	0.02764405	-0.0080017698	-1.0994719	0.40900139	-0.21605967	-0.8789098	0.45087846	0.080026551	-1.0736036	0.36547357	-0.10426723	-0.88737054	0.45938786	-0.047573163	-1.0517784	0.78251972	-0.23539659	-0.98551069	0.86061236	0.14134915	-0.98412537	0.89457703	-0.1851073	-0.93910067	0.93999623	0.049997104	-1.1596495	0.92805517	-0.032628018	-1.016615	1.3852427	-0.21796487	-1.0421612	1.3731878	0.10755864	-1.1148949	1.4120635	-0.06248809	-1.0805132	1.0435211	-0.27475944	-1.2088492	1.0766133	0.12751238	-0.88525833	0.88805116	-0.28512178	-1.1958056	0.84019084	0.18067657
64	0.252	-1.4309575	0.070950019	-0.15161278	-0.74295361	0.040149611	-0.0024895793	-1.4035947	0.20890127	-0.18682056	-0.87879679	0.050927234	0.038734003	-1.3728858	0.19637817	-0.10987895	-0.86763072	0.081533929	-0.044589861	-1.429871	0.26119422	-0.13325046	-0.93368185	0.027655599	-0.0079973328	-1.0875569	0.40905963	-0.21599799	-0.87610952	0.45104961	0.080148481	-1.0611491	0.36635399	-0.10415586	-0.8848205	0.45945078	-0.047533257	-1.0447726	0.78285429	-0.23481784	-0.9801676	0.86118989	0.14184638	-0.97775455	0.89515553	-0.18457985	-0.93295719	0.94053192	0.050425736	-1.1540937	0.92828373	-0.032351408	-1.0106878	1.3858325	-0.21780396	-1.0359572	1.3738559	0.10782416	-1.1090359	1.4129994	-0.062073643	-1.0759869	1.044317	-0.27402985	-1.2018446	1.0765818	0.12901889	-0.88215999	0.88736026	-0.28480535	-1.1873028	0.84029518	0.18189566
65	0.256	-1.4197412	0.07348661	-0.15206942	-0.74279732	0.040027564	-0.0026296874	-1.3923605	0.21134223	-0.18645093	-0.87874576	0.050945801	0.038699424	-1.361946	0.19853924	-0.10950114	-0.86734593	0.081518068	-0.044721079	-1.4188092	0.2634783	-0.13261995	-0.93369665	0.027667768	-0.0080001153	-1.0756497	0.40927509	-0.21585169	-0.87349183	0.4512543	0.080292009	-1.0494448	0.36723401	-0.10372016	-0.88230598	0.45954222	-0.047493634	-1.0378915	0.78327033	-0.23429381	-0.9747642	0.86171823	0.14229468	-0.97144618	0.89585391	-0.18414995	-0.92683515	0.9410453	0.050839098	-1.1485017	0.92839194	-0.032119467	-1.004847	1.386437	-0.21769354	-1.0296814	1.374569	0.10803715	-1.1031756	1.4139704	-0.061660185	-1.071448	1.0451217	-0.27331137	-1.1948356	1.0766199	0.13056983	-0.8790467	0.88665927	-0.28450321	-1.1786834	0.84041985	0.18306747
66	0.26	-1.4075932	0.075736118	-0.15234052	-0.74265222	0.03991898	-0.0027926497	-1.3809423	0.21358426	-0.18606562	-0.87869442	0.050972439	0.038674026	-1.3508567	0.2007611	-0.10906419	-0.86704991	0.081505059	-0.044861437	-1.4077928	0.26561456	-0.13218973	-0.93372106	0.027677327	-0.0080104318	-1.0637729	0.40964518	-0.21562122	-0.87096811	0.45149447	0.080461015	-1.0381426	0.36813452	-0.10310228	-0.87983277	0.45965578	-0.047454219	-1.0311526	0.78375039	-0.23384569	-0.96931378	0.86219935	0.14269547	-0.96521599	0.89667962	-0.18381714	-0.92080169	0.94157147	0.051313338	-1.1430146	0.92847989	-0.031960595	-0.99910822	1.3870573	-0.21762475	-1.0233652	1.3753372	0.10821212	-1.0973292	1.4149618	-0.061251065	-1.066875	1.045923	-0.27252757	-1.1878206	1.0767292	0.13213901	-0.87590961	0.88595804	-0.28420635	-1.1699016	0.84057064	0.18422828
67	0.264	-1.3946756	0.07769203	-0.15243095	-0.74252754	0.039825083	-0.0029670853	-1.369325	0.2155896	-0.18569097	-0.87866437	0.051009298	0.038643515	-1.3394129	0.20300328	-0.10860047	-0.86677205	0.081496344	-0.044996974	-1.3967844	0.26758834	-0.13199339	-0.93375417	0.027683786	-0.008026408	-1.0518661	0.41017926	-0.21533287	-0.86850876	0.45176031	0.080634433	-1.0267409	0.36914538	-0.10250407	-0.8773911	0.45978921	-0.047414042	-1.0245616	0.78428388	-0.23345264	-0.96390932	0.86264044	0.14304209	-0.95908539	0.89763165	-0.18358219	-0.91489349	0.94212893	0.051869257	-1.137591	0.92859822	-0.031792806	-0.99343573	1.3876907	-0.217579	-1.0170789	1.3761604	0.10836376	-1.09151	1.4159631	-0.060856874	-1.0622332	1.0467061	-0.27156534	-1.1807954	1.0768889	0.13370672	-0.87278186	0.8852613	-0.28391623	-1.1607985	0.84074957	0.18546706
68	0.268	-1.3811611	0.079367538	-0.15234584	-0.74242827	0.039746396	-0.0031276971	-1.3575144	0.21734861	-0.18533225	-0.87871608	0.05105545	0.03857414	-1.3275348	0.20520256	-0.10813461	-0.86653558	0.081491692	-0.04511537	-1.385827	0.26936926	-0.13208926	-0.93379259	0.027688953	-0.0080452773	-1.0398784	0.41089762	-0.21500989	-0.8661338	0.45203304	0.080804419	-1.0150265	0.37030817	-0.10200365	-0.87500072	0.45993395	-0.047363956	-1.0180973	0.78488527	-0.23306883	-0.95865642	0.8630565	0.1433343	-0.95307635	0.89869575	-0.18344555	-0.9091085	0.94273222	0.052494768	-1.1321563	0.92876779	-0.031561262	-0.98780446	1.388337	-0.21753381	-1.0108634	1.377034	0.10849986	-1.0857321	1.4169668	-0.060489857	-1.0575161	1.0474741	-0.27040371	-1.1737578	1.0770703	0.13526344	-0.86969306	0.88457028	-0.28362983	-1.1511469	0.84095968	0.18689721
69	0.272	-1.367238	0.080768353	-0.15207455	-0.74235609	0.039682768	-0.003253144	-1.3455291	0.21887908	-0.18498214	-0.87893765	0.051109092	0.038423286	-1.315327	0.20729145	-0.10767214	-0.86634681	0.081489417	-0.045211797	-1.3749851	0.27094679	-0.13261233	-0.93383242	0.027694587	-0.0080647323	-1.0278287	0.4118133	-0.21465429	-0.86387139	0.45228003	0.080982692	-1.003121	0.37158936	-0.10155464	-0.8727155	0.46007416	-0.047293166	-1.0117279	0.78558411	-0.2326607	-0.95358378	0.86346496	0.14358625	-0.94720951	0.89985075	-0.18340179	-0.9034119	0.9433862	0.053169468	-1.1267163	0.92900872	-0.031298543	-0.98221657	1.3890015	-0.21747488	-1.0047061	1.3779507	0.10862559	-1.0800092	1.4179655	-0.060160036	-1.0527792	1.0482596	-0.26920473	-1.1667111	1.077254	0.13680882	-0.86665414	0.88388549	-0.283337	-1.1409024	0.84121309	0.18853338
70	0.276	-1.3530707	0.081898792	-0.15161727	-0.74231178	0.039632366	-0.0033378313	-1.3333858	0.22020636	-0.18462698	-0.87935177	0.051165989	0.038186534	-1.3030491	0.20921042	-0.10719935	-0.86620079	0.081487082	-0.045285872	-1.3642657	0.27229467	-0.1335562	-0.93387267	0.027702066	-0.0080833919	-1.0157617	0.41291903	-0.21426809	-0.86173491	0.45245439	0.081171841	-0.99123878	0.37293563	-0.10108369	-0.87058502	0.46019633	-0.047195497	-1.0054506	0.78640038	-0.23223476	-0.94863724	0.86388024	0.14381416	-0.94151073	0.90107757	-0.18344317	-0.89780646	0.94408433	0.053878344	-1.1213023	0.92934671	-0.031060614	-0.97668052	1.3896938	-0.21740876	-0.99859276	1.378902	0.10874823	-1.0743485	1.4189552	-0.059873651	-1.0480967	1.0490943	-0.26817404	-1.1596631	1.0774372	0.13834569	-0.86365915	0.88320829	-0.28302951	-1.1304157	0.84152535	0.1901994
71	0.28	-1.3387155	0.082791243	-0.15102784	-0.74229556	0.039593166	-0.0033878474	-1.3211013	0.22133817	-0.18424789	-0.87982918	0.051216332	0.037933951	-1.2909301	0.21091574	-0.10670055	-0.86609084	0.08148328	-0.045337657	-1.3535737	0.27332915	-0.13455174	-0.93391451	0.027711841	-0.008101256	-1.0036673	0.41419439	-0.21386458	-0.85971605	0.45252765	0.081356594	-0.97944998	0.37434047	-0.10055685	-0.86859104	0.46030095	-0.047067867	-0.99929113	0.7873378	-0.23183148	-0.94373209	0.8643114	0.14402936	-0.93598832	0.90236447	-0.18356433	-0.89239008	0.94482116	0.054620045	-1.1159187	0.92980712	-0.030875086	-0.97119812	1.3904223	-0.2173523	-0.99255146	1.3798871	0.10887524	-1.0687473	1.4199383	-0.059628584	-1.0434913	1.0499756	-0.26735625	-1.1526233	1.0776242	0.13987277	-0.86070273	0.88254292	-0.28271187	-1.1201697	0.84190303	0.19167039
